Patient4_TMGait_0pt3_02_right_13_EMG.mot
version=1
nRows=23
nColumns=33
inDegrees=no
endheader
time	1LAddLong	2LGlutMax	3LGlutMed	4LIliopsoas	5LSemiMemb	6LBicFemLong	7LRecFem	8LVastMed	9LVastLat	10LGasMed	11LTibAnt	12lTibPost	13LPeroneusLong	14LSol	15LExtDigLong	16LFlexDigLong	17RAddLong	18RGlutMax	19RGlutMed	20RIliopsoas	21RSemiMemb	22RBicFemLong	23RRecFem	24RVastMed	25RVastLat	26RGasMed	27RTibAnt	28RTibPost	29RPeroneusLong	30RSol	31RExtDigLong	32RFlexDigLong
26.373	0.001373	0.055847	0.050354	-0.00824	-0.017395	0.062103	0.081024	-0.009155	0.20355	-0.14664	0.001221	0.030212	-0.027466	0.039063	0.026093	-0.30823	0.019226	-0.044098	0.054932	-0.037689	0.018768	-0.028839	0.011749	-0.062866	-0.042419	-0.000305	0.26047	-0.003204	-0.10178	-0.18677	-0.000916	-0.006104
26.374	0.003967	-0.028992	0.056	-0.025635	-0.023956	0.001068	0.075531	-0.017395	0.1619	0.15732	0.000763	0.010529	0.069733	0.14603	0.015564	-0.2803	0.027771	-0.049591	0.006714	-0.1033	0.003967	-0.020447	-0.004578	-0.044861	-0.036621	0.008087	0.093994	-0.000153	0.061035	-0.20142	-0.001221	-0.015259
26.375	-0.004272	-0.047302	0.002747	-0.010681	-0.008698	0.044556	0.057068	-0.014191	0.054932	-0.05249	-0.005798	0.065308	0.12924	0.21881	-0.022583	0.57877	-0.001373	0.025787	-0.061188	-0.13123	0.00946	-0.013885	0.001678	-0.043488	-0.030823	0.00412	-0.044861	-0.003815	0.17593	-0.12726	-0.003052	-0.007782
26.376	-0.002136	-0.069885	-0.02243	0.005188	0.044708	0.16647	0.03952	-0.008087	-0.10971	-0.31754	0.006104	0.074768	0.11169	0.23315	-0.008087	0.12848	-0.008545	0.009613	-0.048981	-0.082703	0.013428	-0.013123	-0.008698	-0.019989	-0.02655	-0.006104	-0.29358	-0.000916	0.34988	-0.013428	-0.001678	-0.021057
26.377	-0.001678	-0.083771	-0.030518	0.015411	0.057373	0.14664	-0.029144	-0.005035	-0.32471	-0.17929	0.009155	-0.004578	0.061798	0.049591	-0.049744	-0.014038	-0.027008	-0.010223	-0.07782	0.10681	0.015869	0.023346	-0.039673	-0.023804	-0.032959	-0.008087	-0.58487	0.003052	0.52292	0.057526	-0.00061	-0.016479
26.378	-0.000153	-0.067596	-0.007629	0.008392	0.029449	0.055847	-0.075226	0.00473	-0.29205	-0.016632	0.008545	-0.037384	0.10361	-0.39093	-0.061646	0.018463	-0.020599	0.045624	-0.032654	0.2388	0.020294	0.006714	0.007019	-0.02655	-0.03891	-0.002899	-0.48157	-0.001831	-0.13992	0.034332	-0.002289	-0.014496
26.379	0.012054	-0.001526	-0.020599	0.015717	0.011749	0.25207	-0.048981	-0.007782	-0.12909	0.087891	0.005951	0.028381	0.3949	-0.73669	-0.037842	0.017242	-0.018768	0.062256	-0.000916	0.36209	0.022888	0.022125	-0.020752	-0.027466	-0.003662	-0.001831	-0.19714	-0.003662	-0.29495	0.019989	-0.003967	-0.008545
26.38	0.007477	0.026245	-0.078735	0.00061	-0.000153	0.40009	0.020447	0.009003	-0.011597	0.011597	-0.006866	0.046387	0.62973	-0.47241	-0.002747	0.05661	-0.015717	0.039673	0.052795	0.27481	0.012207	0.016785	-0.000916	-0.027008	-0.01297	-0.001221	-0.19104	-0.003357	-0.083313	0.049438	-0.00351	-0.012512
26.381	0.006256	-0.033264	-0.091858	0.023804	0.009003	0.058441	0.037537	0.01297	-0.014343	-0.1059	-0.015717	-0.038605	0.083008	0.039673	0.014954	0.022888	-0.018005	-0.028381	0.12344	0.12161	0.029449	0.023041	0.022278	-0.019379	-0.014496	0.009918	0.12436	-0.007935	-0.083618	-0.001221	-0.001221	-0.001984
26.382	0.011292	-0.085449	-0.056915	0.016632	0.000458	-0.21774	0.018463	0.005341	0.025177	-0.13351	0.010529	-0.010529	-0.86899	0.062866	-0.014648	-0.037537	-0.002441	-0.00946	0.34637	0.030212	0.027466	0.034485	-0.017395	-0.03418	0.010681	-0.000916	0.39093	-0.006866	-0.033264	-0.13626	-0.001526	0.003357
26.383	0.005798	-0.013733	-0.005646	0.001373	-0.011444	-0.1712	0.002289	-0.020905	0.015259	-0.092163	0.002594	-0.009613	-0.25482	0.12985	0.005493	-0.040894	-0.005341	-0.049744	0.24353	0.03891	0.027161	0.01297	-0.00824	-0.000153	0.005341	-0.002289	0.42801	-0.009918	0.028381	-0.097046	-0.002594	-0.005493
26.384	-0.007477	-0.037689	-0.015869	-0.00824	0.011597	-0.16693	0.033264	-0.024109	0.021362	-0.10468	-0.019989	-0.009308	-0.26337	0.28976	0.000916	-0.052948	-0.000458	-0.035858	0.062866	0.024567	0.029602	0.00946	-0.013275	-0.029755	0.00061	-0.004883	0.075989	-0.007324	0.007019	0.003204	0.008087	0.00351
26.385	-0.017242	-0.070801	-0.13184	0.02121	-0.033417	-0.095978	0.0354	-0.018463	0.039063	0.029907	-0.019836	0.001831	0.058899	0.5098	-0.035553	-0.034332	0.000763	-0.040131	0.085907	0.03006	0.024719	0.018463	-0.019226	-0.039673	0.008545	0	-0.13825	-0.010834	-0.027618	0.034485	-0.004578	-0.003815
26.386	-0.013275	-0.16647	-0.15549	0.028687	-0.10986	-0.029755	0.032654	-0.008698	0.027313	0.055389	-0.020905	-0.01236	0.078583	0.62882	-0.017395	-0.028381	-0.004883	0.017242	-0.13977	0.070648	0.030365	0.030975	-0.011444	-0.021515	0.019989	-0.006561	-0.34943	-0.009155	-0.093231	0.066681	-0.003357	-0.000305
26.387	0.006104	-0.12405	-0.053711	0.024719	-0.10208	-0.069275	0.038452	-0.010529	0.018768	0.000763	0.005341	0.008698	-0.045166	0.55069	-0.018158	-0.018463	-0.001373	0.068512	-0.19943	0.012512	0.027008	0.033875	0.013733	-0.034485	0.014954	-0.000305	-0.22049	-0.009918	0.19043	-0.011139	-0.001678	-0.006256
26.388	0.032349	-0.093842	0.028992	-0.015259	0.0177	-0.12436	0.051117	-0.018311	0.017242	0.013428	-0.001373	0.003662	0.14984	0.1503	-0.010529	-0.021362	0.000153	0.016632	-0.007935	-0.06012	0.032806	0.036316	0.002747	-0.00824	0.008698	-0.004425	-0.025177	-0.008392	-0.0354	-0.06073	-0.003662	-0.010681
26.389	0.029907	0.002899	0.1886	-0.015259	0.15472	-0.090179	0.03952	-0.017548	0.041962	0.036774	-0.01358	0.010681	0.13306	-0.22263	0.047302	-0.008392	0.005493	0.015869	0.021057	-0.08194	0.03006	0.033569	-0.027466	0.001221	0.018158	-0.011444	-0.009766	-0.00412	-0.21668	-0.11261	0.000305	-0.018311
26.39	0.027008	-0.006409	0.12955	-0.004883	0.13473	-0.14664	0.020142	-0.002441	0.019531	0.18707	0.005341	0.00885	0.079193	-0.15656	0.009918	-0.014038	0.000916	0.011139	-0.13107	-0.10605	0.037384	0.037384	-0.043488	0.018311	0.012512	-0.006256	-0.021667	0.00824	-0.051575	-0.16617	0.001221	-0.013733
26.391	0.007629	0.050354	0.0914	-0.010681	0.078735	-0.077362	-0.012054	0.010071	-0.025482	0.27741	0.003967	0.000153	0.17517	-0.15747	-0.018005	-0.019989	-0.00061	-0.033112	-0.075226	-0.074921	0.0354	0.034943	-0.046844	0.030823	0.010529	-0.005493	0.42114	-0.00412	-0.085297	-0.11826	-0.001526	-0.013733
26.392	0.020294	0.079803	0.046082	0.020142	0.006866	-0.002899	-0.020294	0.012512	0.001984	0.18249	-0.000153	0.004425	-0.018768	-0.071716	-0.016174	-0.026855	-0.000916	-0.06073	-0.088654	-0.089722	0.03067	0.025482	-0.048218	-0.002289	0.025635	-0.005951	0.40482	-0.007782	-0.066986	-0.080414	-0.001068	-0.013123
26.393	0.016022	0.075989	0.02594	0.014038	-0.002136	-0.032501	0.008087	0.017548	-0.014038	-0.038757	-0.001984	0.010071	-0.14969	-0.018616	0.010071	-0.024567	0.005035	-0.094147	-0.24231	-0.018158	0.024109	0.023804	-0.028229	-0.02182	0.016785	-0.004425	0.19806	-0.008392	-0.00473	-0.075378	0.005646	-0.003662
26.394	0.015717	0.023651	0.010529	0.002747	0.017548	-0.081024	0.052795	0.018768	-0.031433	0.001984	0.016174	0.014648	-0.15457	-0.004272	0.012207	-0.019836	0.004425	-0.12848	-0.31754	-0.005493	0.00885	-0.006256	-0.007172	-0.041809	0.015717	0.001678	-0.10178	-0.002136	0.018921	-0.11353	-0.012207	-0.007935
26.395	0.016022	0.005951	0.003662	0.00412	0.043182	-0.12848	0.071716	0.014496	-0.032196	-0.037384	0.007324	0.017853	-0.10681	-0.050659	0.000916	-0.036011	0.01236	-0.085754	-0.065765	0.016479	0.010376	0.007324	-0.032806	-0.070496	0.017548	-0.004578	-0.03067	-0.006104	-0.003662	-0.10056	-0.00473	-0.01297
